<svg xmlns="http://www.w3.org/2000/svg" viewBox="0 0 100 100">
  <rect width="100" height="100" rx="22" fill="#15110d"/>
  <path d="M50 86 C31 76 18 61 19 45 C22 34 30 28 35 45 C37 36 41 23 50 13 C59 23 63 36 65 45 C70 28 78 34 81 45 C82 61 69 76 50 86Z" fill="#ff5722"/>
  <path d="M50 80 C36 70 28 58 33 49 C40 55 45 45 50 34 C55 45 60 55 67 49 C72 58 64 70 50 80Z" fill="#ff9800"/>
  <path d="M50 74 C40 65 36 57 41 52 C46 58 50 48 50 48 C50 48 54 58 59 52 C64 57 60 65 50 74Z" fill="#e8a13c"/>
</svg>
